<svg xmlns="http://www.w3.org/2000/svg" width="175.982" height="198.384" fill="#290b53" xmlns:v="https://vecta.io/nano">
    <path d="M161.4 51.83a1.52 1.52 0 0 1 .24-1.44c6.06-7.65 11.56-16.45 11.56-23.2 0-15-8.56-27.19-27.19-27.19-9.23 0-16 3-20.45 7.83a1.56 1.56 0 0 1-1.63.44 138.83 138.83 0 0 0-21.76-5.15 1.52 1.52 0 0 0-1.67 1.9l18.22 70.34c4.5 16.89-7.16 33.48-24.64 33.43H83.26c-17.66 0-28.38-16.65-24.31-33.25L76.76 5.12a1.51 1.51 0 0 0-1.65-1.89A118.92 118.92 0 0 0 49.9 9a1.55 1.55 0 0 1-1.71-.47C43.74 3.3 36.8.03 27.19.03 8.56.03 0 12.2 0 27.22c0 7.87 7.48 18.54 14.6 26.9a1.55 1.55 0 0 1 .28 1.48L2.76 90.8a.36.36 0 0 0 0 .11c-.32 1.23-5 22 30.56 55.06l54.37 52a1.5 1.5 0 0 0 2.07 0l56-52c38.42-35.83 29.27-55.17 29.27-55.17zM95.95 85.48H81.47a4.34 4.34 0 0 1-4.34-4.36l-1.8-17.83a4.34 4.34 0 0 1 4.35-4.34h18a4.34 4.34 0 0 1 4.35 4.34l-1.73 17.83a4.34 4.34 0 0 1-4.35 4.36z"/>
</svg>
